<?xml version="1.0" encoding="utf-8"?>
<svg version="1.1" xmlns:xlink="http://www.w3.org/1999/xlink" width="50px" height="44px" xmlns="http://www.w3.org/2000/svg">
  <g transform="matrix(1 0 0 1 -30 -24 )">
    <path d="M 0 6.285714285714286  C 0 7.277622448979592  0.7994419642857143 8.081632653061225  1.7857142857142856 8  L 48.214285714285715 8  C 49.20055803571429 8.081632653061225  50 7.277622448979592  50 6.285714285714286  L 50 1.7959183673469385  C 50 0.8040102040816323  49.20055803571429 0  48.214285714285715 0  L 1.7857142857142856 0  C 0.7994419642857143 0  0 0.8040102040816323  0 1.7959183673469385  L 0 6.285714285714286  Z M 0 24.24489795918367  C 0 25.236806122448982  0.7994419642857143 26.04081632653061  1.7857142857142856 26  L 48.214285714285715 26  C 49.20055803571429 26.04081632653061  50 25.236806122448982  50 24.24489795918367  L 50 19.755102040816325  C 50 18.76319387755102  49.20055803571429 17.95918367346939  48.214285714285715 18  L 1.7857142857142856 18  C 0.7994419642857143 17.95918367346939  0 18.76319387755102  0 19.755102040816325  L 0 24.24489795918367  Z M 0 42.20408163265306  C 0 43.195989795918365  0.7994419642857143 44  1.7857142857142856 44  L 48.214285714285715 44  C 49.20055803571429 44  50 43.195989795918365  50 42.20408163265306  L 50 37.714285714285715  C 50 36.72237755102041  49.20055803571429 35.91836734693878  48.214285714285715 36  L 1.7857142857142856 36  C 0.7994419642857143 35.91836734693878  0 36.72237755102041  0 37.714285714285715  L 0 42.20408163265306  Z " fill-rule="nonzero" fill="#eeeeee" stroke="none" transform="matrix(1 0 0 1 30 24 )" />
  </g>
</svg>