<?xml version="1.0" encoding="utf-8"?>
<svg version="1.1" xmlns:xlink="http://www.w3.org/1999/xlink" width="50px" height="50px" xmlns="http://www.w3.org/2000/svg">
  <g transform="matrix(1 0 0 1 -1840 -24 )">
    <path d="M 50 25  C 50 11.189516129032258  38.810483870967744 0  25 0  C 11.189516129032258 0  0 11.189516129032258  0 25  C 0 38.810483870967744  11.189516129032258 50  25 50  C 38.810483870967744 50  50 38.810483870967744  50 25  Z M 16.129032258064516 18.548387096774192  C 16.129032258064516 13.649193548387098  20.100806451612904 9.67741935483871  25 9.67741935483871  C 29.8991935483871 9.67741935483871  33.87096774193548 13.649193548387098  33.87096774193548 18.548387096774192  C 33.87096774193548 23.44758064516129  29.8991935483871 27.419354838709676  25 27.419354838709676  C 20.1008064516129 27.419354838709676  16.129032258064516 23.44758064516129  16.129032258064516 18.548387096774192  Z M 39.76814516129033 37.47983870967742  C 36.21975806451613 41.67338709677419  30.917338709677416 44.354838709677416  25 44.354838709677416  C 19.08266129032258 44.354838709677416  13.78024193548387 41.67338709677419  10.231854838709678 37.47983870967742  C 12.127016129032258 33.91129032258065  15.836693548387096 31.451612903225808  20.161290322580644 31.451612903225808  C 20.403225806451612 31.451612903225808  20.64516129032258 31.491935483870964  20.87701612903226 31.562500000000004  C 22.1875 31.985887096774196  23.55846774193548 32.25806451612903  25 32.25806451612903  C 26.441532258064516 32.25806451612903  27.82258064516129 31.985887096774196  29.12298387096774 31.562500000000004  C 29.354838709677416 31.491935483870968  29.596774193548388 31.451612903225808  29.838709677419356 31.451612903225808  C 34.163306451612904 31.451612903225808  37.872983870967744 33.91129032258065  39.76814516129033 37.47983870967742  Z " fill-rule="nonzero" fill="#eeeeee" stroke="none" transform="matrix(1 0 0 1 1840 24 )" />
  </g>
</svg>